<svg width="32" height="27" viewBox="0 0 32 27" fill="none" xmlns="http://www.w3.org/2000/svg">
<g filter="url(#filter0_d_10_87)">
<path d="M29.333 2.83998C28.333 3.33298 27.333 3.50698 26.16 3.66698C27.333 2.99998 28.16 1.99998 28.493 0.666984C27.488 1.27498 26.317 1.73798 25.07 1.98898L25 2.00098C23.969 0.986984 22.56 0.354984 21.004 0.333984H21C18.16 0.333984 15.667 2.84098 15.667 5.84098C15.667 6.33398 15.667 6.66798 15.84 7.00098C11.262 6.82298 7.22103 4.66398 4.52903 1.36198L4.50703 1.33398C4.08203 2.05998 3.83103 2.93198 3.83103 3.86298C3.83103 3.97198 3.83403 4.08098 3.84103 4.18898L3.84003 4.17398C3.87403 6.05198 4.84903 7.69498 6.31303 8.65498L6.33403 8.66798C5.49403 8.66798 4.66703 8.33498 3.82703 8.00098C3.82703 10.668 5.66703 12.841 8.16003 13.334C7.66703 13.507 7.16003 13.507 6.66703 13.507C6.33403 13.507 6.00003 13.507 5.66703 13.334C6.33403 15.507 8.33403 17.174 10.84 17.174C9.04003 18.629 6.72403 19.509 4.20303 19.509C4.13203 19.509 4.06103 19.508 3.99003 19.507H4.00103H2.66803C5.03303 21.016 7.90403 21.936 10.984 22H11.001C21.001 22 26.508 13.667 26.508 6.49298V5.82598C27.655 5.03598 28.601 4.03898 29.311 2.88198L29.335 2.83998H29.333Z" fill="black"/>
</g>
<defs>
<filter id="filter0_d_10_87" x="-1.33197" y="0.333984" width="34.667" height="29.666" filterUnits="userSpaceOnUse" color-interpolation-filters="sRGB">
<feFlood flood-opacity="0" result="BackgroundImageFix"/>
<feColorMatrix in="SourceAlpha" type="matrix" values="0 0 0 0 0 0 0 0 0 0 0 0 0 0 0 0 0 0 127 0" result="hardAlpha"/>
<feOffset dy="4"/>
<feGaussianBlur stdDeviation="2"/>
<feComposite in2="hardAlpha" operator="out"/>
<feColorMatrix type="matrix" values="0 0 0 0 0 0 0 0 0 0 0 0 0 0 0 0 0 0 0.25 0"/>
<feBlend mode="normal" in2="BackgroundImageFix" result="effect1_dropShadow_10_87"/>
<feBlend mode="normal" in="SourceGraphic" in2="effect1_dropShadow_10_87" result="shape"/>
</filter>
</defs>
</svg>
